<mxfile host="Electron" modified="2024-09-26T17:52:29.267Z" agent="Mozilla/5.0 (Windows NT 10.0; Win64; x64) AppleWebKit/537.36 (KHTML, like Gecko) draw.io/24.0.4 Chrome/120.0.6099.109 Electron/28.1.0 Safari/537.36" etag="uiAfP1FWp1dj59USE2yP" version="24.0.4" type="device">
  <diagram name="Страница — 1" id="fHvxciMUewtH3KyjnSEp">
    <mxGraphModel dx="1313" dy="786" grid="0" gridSize="10" guides="1" tooltips="1" connect="1" arrows="1" fold="1" page="1" pageScale="1" pageWidth="4681" pageHeight="3300" math="0" shadow="0">
      <root>
        <mxCell id="0" />
        <mxCell id="1" parent="0" />
        <mxCell id="jmJejw3v0kQWSH8vtQN6-7" value="" style="edgeStyle=orthogonalEdgeStyle;rounded=0;orthogonalLoop=1;jettySize=auto;html=1;entryX=0.5;entryY=0;entryDx=0;entryDy=0;" edge="1" parent="1" source="jmJejw3v0kQWSH8vtQN6-1" target="jmJejw3v0kQWSH8vtQN6-93">
          <mxGeometry relative="1" as="geometry">
            <mxPoint x="520" y="170" as="targetPoint" />
          </mxGeometry>
        </mxCell>
        <mxCell id="jmJejw3v0kQWSH8vtQN6-1" value="Начало" style="ellipse;whiteSpace=wrap;html=1;" vertex="1" parent="1">
          <mxGeometry x="480" y="30" width="80" height="40" as="geometry" />
        </mxCell>
        <mxCell id="jmJejw3v0kQWSH8vtQN6-2" value="&lt;div&gt;using System;&lt;/div&gt;&lt;div&gt;using System.Collections.Generic;&lt;/div&gt;&lt;div&gt;using System.Linq;&lt;/div&gt;&lt;div&gt;using System.Text;&lt;/div&gt;&lt;div&gt;using System.Threading.Tasks;&lt;/div&gt;&lt;div&gt;&lt;div&gt;namespace Laba_1_OOP_Part_3_&lt;/div&gt;&lt;div&gt;{&lt;/div&gt;&lt;div&gt;&amp;nbsp; &amp;nbsp; internal class Program&lt;/div&gt;&lt;div&gt;&amp;nbsp; &amp;nbsp; {&lt;/div&gt;&lt;div&gt;&amp;nbsp; &amp;nbsp; &amp;nbsp; &amp;nbsp; static void Main(string[] args)&lt;/div&gt;&lt;div&gt;&amp;nbsp; &amp;nbsp; &amp;nbsp; &amp;nbsp; {&lt;/div&gt;&lt;/div&gt;" style="text;html=1;align=left;verticalAlign=middle;whiteSpace=wrap;rounded=0;" vertex="1" parent="1">
          <mxGeometry x="640" y="40" width="210" height="160" as="geometry" />
        </mxCell>
        <mxCell id="jmJejw3v0kQWSH8vtQN6-3" value="" style="endArrow=none;html=1;rounded=0;" edge="1" parent="1">
          <mxGeometry width="50" height="50" relative="1" as="geometry">
            <mxPoint x="680" y="200" as="sourcePoint" />
            <mxPoint x="640" y="200" as="targetPoint" />
          </mxGeometry>
        </mxCell>
        <mxCell id="jmJejw3v0kQWSH8vtQN6-4" value="" style="endArrow=none;html=1;rounded=0;exitX=0;exitY=1;exitDx=0;exitDy=0;entryX=0;entryY=0;entryDx=0;entryDy=0;" edge="1" parent="1" source="jmJejw3v0kQWSH8vtQN6-2" target="jmJejw3v0kQWSH8vtQN6-2">
          <mxGeometry width="50" height="50" relative="1" as="geometry">
            <mxPoint x="550" y="130" as="sourcePoint" />
            <mxPoint x="600" y="80" as="targetPoint" />
          </mxGeometry>
        </mxCell>
        <mxCell id="jmJejw3v0kQWSH8vtQN6-5" value="" style="endArrow=none;html=1;rounded=0;" edge="1" parent="1">
          <mxGeometry width="50" height="50" relative="1" as="geometry">
            <mxPoint x="640" y="40" as="sourcePoint" />
            <mxPoint x="680" y="40" as="targetPoint" />
          </mxGeometry>
        </mxCell>
        <mxCell id="jmJejw3v0kQWSH8vtQN6-49" value="" style="endArrow=none;html=1;rounded=0;" edge="1" parent="1">
          <mxGeometry width="50" height="50" relative="1" as="geometry">
            <mxPoint x="520" y="120" as="sourcePoint" />
            <mxPoint x="550" y="120" as="targetPoint" />
          </mxGeometry>
        </mxCell>
        <mxCell id="jmJejw3v0kQWSH8vtQN6-50" value="" style="endArrow=none;html=1;rounded=0;" edge="1" parent="1">
          <mxGeometry width="50" height="50" relative="1" as="geometry">
            <mxPoint x="560" y="120" as="sourcePoint" />
            <mxPoint x="590" y="120" as="targetPoint" />
          </mxGeometry>
        </mxCell>
        <mxCell id="jmJejw3v0kQWSH8vtQN6-51" value="" style="endArrow=none;html=1;rounded=0;" edge="1" parent="1">
          <mxGeometry width="50" height="50" relative="1" as="geometry">
            <mxPoint x="600" y="120" as="sourcePoint" />
            <mxPoint x="640" y="120" as="targetPoint" />
          </mxGeometry>
        </mxCell>
        <mxCell id="jmJejw3v0kQWSH8vtQN6-95" value="" style="edgeStyle=orthogonalEdgeStyle;rounded=0;orthogonalLoop=1;jettySize=auto;html=1;" edge="1" parent="1" source="jmJejw3v0kQWSH8vtQN6-93" target="jmJejw3v0kQWSH8vtQN6-94">
          <mxGeometry relative="1" as="geometry" />
        </mxCell>
        <mxCell id="jmJejw3v0kQWSH8vtQN6-93" value="Console.WriteLine(&quot;Решение выражения: (a+b)^3 - (a^3+3*a*b^2)&quot;);" style="shape=parallelogram;perimeter=parallelogramPerimeter;whiteSpace=wrap;html=1;fixedSize=1;" vertex="1" parent="1">
          <mxGeometry x="315" y="220" width="410" height="40" as="geometry" />
        </mxCell>
        <mxCell id="jmJejw3v0kQWSH8vtQN6-97" value="" style="edgeStyle=orthogonalEdgeStyle;rounded=0;orthogonalLoop=1;jettySize=auto;html=1;" edge="1" parent="1" source="jmJejw3v0kQWSH8vtQN6-94" target="jmJejw3v0kQWSH8vtQN6-96">
          <mxGeometry relative="1" as="geometry" />
        </mxCell>
        <mxCell id="jmJejw3v0kQWSH8vtQN6-94" value="Console.WriteLine(&quot;                         3a^2*b+b^3&quot;);" style="shape=parallelogram;perimeter=parallelogramPerimeter;whiteSpace=wrap;html=1;fixedSize=1;" vertex="1" parent="1">
          <mxGeometry x="372.5" y="290" width="295" height="30" as="geometry" />
        </mxCell>
        <mxCell id="jmJejw3v0kQWSH8vtQN6-99" value="" style="edgeStyle=orthogonalEdgeStyle;rounded=0;orthogonalLoop=1;jettySize=auto;html=1;" edge="1" parent="1" source="jmJejw3v0kQWSH8vtQN6-96" target="jmJejw3v0kQWSH8vtQN6-98">
          <mxGeometry relative="1" as="geometry" />
        </mxCell>
        <mxCell id="jmJejw3v0kQWSH8vtQN6-96" value="float a = 1000;" style="whiteSpace=wrap;html=1;" vertex="1" parent="1">
          <mxGeometry x="465" y="340" width="110" height="25" as="geometry" />
        </mxCell>
        <mxCell id="jmJejw3v0kQWSH8vtQN6-101" value="" style="edgeStyle=orthogonalEdgeStyle;rounded=0;orthogonalLoop=1;jettySize=auto;html=1;" edge="1" parent="1" source="jmJejw3v0kQWSH8vtQN6-98" target="jmJejw3v0kQWSH8vtQN6-100">
          <mxGeometry relative="1" as="geometry" />
        </mxCell>
        <mxCell id="jmJejw3v0kQWSH8vtQN6-98" value="double b = 0.0001;" style="whiteSpace=wrap;html=1;" vertex="1" parent="1">
          <mxGeometry x="465" y="390" width="110" height="25" as="geometry" />
        </mxCell>
        <mxCell id="jmJejw3v0kQWSH8vtQN6-103" value="" style="edgeStyle=orthogonalEdgeStyle;rounded=0;orthogonalLoop=1;jettySize=auto;html=1;" edge="1" parent="1" source="jmJejw3v0kQWSH8vtQN6-100" target="jmJejw3v0kQWSH8vtQN6-102">
          <mxGeometry relative="1" as="geometry" />
        </mxCell>
        <mxCell id="jmJejw3v0kQWSH8vtQN6-100" value="double c1, c2, c3, c4, c5;" style="whiteSpace=wrap;html=1;" vertex="1" parent="1">
          <mxGeometry x="447.5" y="440" width="145" height="25" as="geometry" />
        </mxCell>
        <mxCell id="jmJejw3v0kQWSH8vtQN6-105" value="" style="edgeStyle=orthogonalEdgeStyle;rounded=0;orthogonalLoop=1;jettySize=auto;html=1;" edge="1" parent="1" source="jmJejw3v0kQWSH8vtQN6-102" target="jmJejw3v0kQWSH8vtQN6-104">
          <mxGeometry relative="1" as="geometry" />
        </mxCell>
        <mxCell id="jmJejw3v0kQWSH8vtQN6-102" value="Console.WriteLine(&quot;1 шаг: (a+b)^3&quot;);" style="shape=parallelogram;perimeter=parallelogramPerimeter;whiteSpace=wrap;html=1;fixedSize=1;" vertex="1" parent="1">
          <mxGeometry x="405" y="490" width="230" height="32.5" as="geometry" />
        </mxCell>
        <mxCell id="jmJejw3v0kQWSH8vtQN6-107" value="" style="edgeStyle=orthogonalEdgeStyle;rounded=0;orthogonalLoop=1;jettySize=auto;html=1;" edge="1" parent="1" source="jmJejw3v0kQWSH8vtQN6-104" target="jmJejw3v0kQWSH8vtQN6-106">
          <mxGeometry relative="1" as="geometry" />
        </mxCell>
        <mxCell id="jmJejw3v0kQWSH8vtQN6-104" value="c1 = Math.Pow(a + b, 3);" style="whiteSpace=wrap;html=1;" vertex="1" parent="1">
          <mxGeometry x="445" y="550" width="150" height="31.25" as="geometry" />
        </mxCell>
        <mxCell id="jmJejw3v0kQWSH8vtQN6-109" value="" style="edgeStyle=orthogonalEdgeStyle;rounded=0;orthogonalLoop=1;jettySize=auto;html=1;" edge="1" parent="1" source="jmJejw3v0kQWSH8vtQN6-106" target="jmJejw3v0kQWSH8vtQN6-108">
          <mxGeometry relative="1" as="geometry" />
        </mxCell>
        <mxCell id="jmJejw3v0kQWSH8vtQN6-106" value="Console.WriteLine(&quot;Результат = &quot;+c1 + &quot;\n&quot; + &quot;2 шаг: a^3+3*a*b^2&quot;);" style="shape=parallelogram;perimeter=parallelogramPerimeter;whiteSpace=wrap;html=1;fixedSize=1;" vertex="1" parent="1">
          <mxGeometry x="320" y="610" width="400" height="33.13" as="geometry" />
        </mxCell>
        <mxCell id="jmJejw3v0kQWSH8vtQN6-111" value="" style="edgeStyle=orthogonalEdgeStyle;rounded=0;orthogonalLoop=1;jettySize=auto;html=1;" edge="1" parent="1" source="jmJejw3v0kQWSH8vtQN6-108" target="jmJejw3v0kQWSH8vtQN6-110">
          <mxGeometry relative="1" as="geometry" />
        </mxCell>
        <mxCell id="jmJejw3v0kQWSH8vtQN6-108" value="c2 = (Math.Pow(a,3)+3*a*Math.Pow(b,2));" style="whiteSpace=wrap;html=1;" vertex="1" parent="1">
          <mxGeometry x="405" y="670" width="230" height="30.3" as="geometry" />
        </mxCell>
        <mxCell id="jmJejw3v0kQWSH8vtQN6-113" value="" style="edgeStyle=orthogonalEdgeStyle;rounded=0;orthogonalLoop=1;jettySize=auto;html=1;" edge="1" parent="1" source="jmJejw3v0kQWSH8vtQN6-110" target="jmJejw3v0kQWSH8vtQN6-112">
          <mxGeometry relative="1" as="geometry" />
        </mxCell>
        <mxCell id="jmJejw3v0kQWSH8vtQN6-110" value="Console.WriteLine(&quot;Результат = &quot; + c2 + &quot;\n&quot; + &quot;3 шаг: (a+b)^3 - (a^3+3*a*b^2)&quot;);" style="shape=parallelogram;perimeter=parallelogramPerimeter;whiteSpace=wrap;html=1;fixedSize=1;" vertex="1" parent="1">
          <mxGeometry x="285" y="730" width="470" height="34.55" as="geometry" />
        </mxCell>
        <mxCell id="jmJejw3v0kQWSH8vtQN6-115" value="" style="edgeStyle=orthogonalEdgeStyle;rounded=0;orthogonalLoop=1;jettySize=auto;html=1;" edge="1" parent="1" source="jmJejw3v0kQWSH8vtQN6-112" target="jmJejw3v0kQWSH8vtQN6-114">
          <mxGeometry relative="1" as="geometry" />
        </mxCell>
        <mxCell id="jmJejw3v0kQWSH8vtQN6-112" value="c3 = (c1 - c2);" style="whiteSpace=wrap;html=1;" vertex="1" parent="1">
          <mxGeometry x="475" y="790" width="90" height="28.18" as="geometry" />
        </mxCell>
        <mxCell id="jmJejw3v0kQWSH8vtQN6-117" value="" style="edgeStyle=orthogonalEdgeStyle;rounded=0;orthogonalLoop=1;jettySize=auto;html=1;" edge="1" parent="1" source="jmJejw3v0kQWSH8vtQN6-114" target="jmJejw3v0kQWSH8vtQN6-116">
          <mxGeometry relative="1" as="geometry" />
        </mxCell>
        <mxCell id="jmJejw3v0kQWSH8vtQN6-114" value="Console.WriteLine(&quot;Результат = &quot; + c3 + &quot;\n&quot; + &quot;4 шаг: 3a^2*b+b^3&quot;);" style="shape=parallelogram;perimeter=parallelogramPerimeter;whiteSpace=wrap;html=1;fixedSize=1;" vertex="1" parent="1">
          <mxGeometry x="320" y="840" width="400" height="37.73" as="geometry" />
        </mxCell>
        <mxCell id="jmJejw3v0kQWSH8vtQN6-119" value="" style="edgeStyle=orthogonalEdgeStyle;rounded=0;orthogonalLoop=1;jettySize=auto;html=1;" edge="1" parent="1" source="jmJejw3v0kQWSH8vtQN6-116" target="jmJejw3v0kQWSH8vtQN6-118">
          <mxGeometry relative="1" as="geometry" />
        </mxCell>
        <mxCell id="jmJejw3v0kQWSH8vtQN6-116" value="c4 = (3 * Math.Pow(a, 2) * b + Math.Pow(b, 3));" style="whiteSpace=wrap;html=1;" vertex="1" parent="1">
          <mxGeometry x="390" y="900" width="260" height="33.4" as="geometry" />
        </mxCell>
        <mxCell id="jmJejw3v0kQWSH8vtQN6-121" value="" style="edgeStyle=orthogonalEdgeStyle;rounded=0;orthogonalLoop=1;jettySize=auto;html=1;" edge="1" parent="1" source="jmJejw3v0kQWSH8vtQN6-118" target="jmJejw3v0kQWSH8vtQN6-120">
          <mxGeometry relative="1" as="geometry" />
        </mxCell>
        <mxCell id="jmJejw3v0kQWSH8vtQN6-118" value="Console.WriteLine(&quot;Результат = &quot; + c4 + &quot;\n&quot; + &quot;5 шаг: ((a+b)^3 - (a^3+3*a*b^2)) / 3a^2*b+b^3&quot;);" style="shape=parallelogram;perimeter=parallelogramPerimeter;whiteSpace=wrap;html=1;fixedSize=1;" vertex="1" parent="1">
          <mxGeometry x="245" y="960" width="550" height="39.9" as="geometry" />
        </mxCell>
        <mxCell id="jmJejw3v0kQWSH8vtQN6-123" value="" style="edgeStyle=orthogonalEdgeStyle;rounded=0;orthogonalLoop=1;jettySize=auto;html=1;" edge="1" parent="1" source="jmJejw3v0kQWSH8vtQN6-120" target="jmJejw3v0kQWSH8vtQN6-122">
          <mxGeometry relative="1" as="geometry" />
        </mxCell>
        <mxCell id="jmJejw3v0kQWSH8vtQN6-120" value="c5 = (c3/c4);" style="whiteSpace=wrap;html=1;" vertex="1" parent="1">
          <mxGeometry x="475" y="1019.9999999999999" width="90" height="30.15" as="geometry" />
        </mxCell>
        <mxCell id="jmJejw3v0kQWSH8vtQN6-125" value="" style="edgeStyle=orthogonalEdgeStyle;rounded=0;orthogonalLoop=1;jettySize=auto;html=1;" edge="1" parent="1" source="jmJejw3v0kQWSH8vtQN6-122" target="jmJejw3v0kQWSH8vtQN6-124">
          <mxGeometry relative="1" as="geometry" />
        </mxCell>
        <mxCell id="jmJejw3v0kQWSH8vtQN6-122" value="Console.WriteLine(&quot;Итоговый ответ(double) = &quot; + c5);" style="shape=parallelogram;perimeter=parallelogramPerimeter;whiteSpace=wrap;html=1;fixedSize=1;" vertex="1" parent="1">
          <mxGeometry x="360" y="1070" width="320" height="34.78" as="geometry" />
        </mxCell>
        <mxCell id="jmJejw3v0kQWSH8vtQN6-127" value="" style="edgeStyle=orthogonalEdgeStyle;rounded=0;orthogonalLoop=1;jettySize=auto;html=1;" edge="1" parent="1" source="jmJejw3v0kQWSH8vtQN6-124" target="jmJejw3v0kQWSH8vtQN6-126">
          <mxGeometry relative="1" as="geometry" />
        </mxCell>
        <mxCell id="jmJejw3v0kQWSH8vtQN6-124" value="c5 = (float)(c3 / c4);" style="whiteSpace=wrap;html=1;" vertex="1" parent="1">
          <mxGeometry x="465" y="1130" width="110" height="37.83" as="geometry" />
        </mxCell>
        <mxCell id="jmJejw3v0kQWSH8vtQN6-129" value="" style="edgeStyle=orthogonalEdgeStyle;rounded=0;orthogonalLoop=1;jettySize=auto;html=1;" edge="1" parent="1" source="jmJejw3v0kQWSH8vtQN6-126" target="jmJejw3v0kQWSH8vtQN6-128">
          <mxGeometry relative="1" as="geometry" />
        </mxCell>
        <mxCell id="jmJejw3v0kQWSH8vtQN6-126" value="Console.WriteLine(&quot;Итоговый ответ(float) = &quot; + c5);" style="shape=parallelogram;perimeter=parallelogramPerimeter;whiteSpace=wrap;html=1;fixedSize=1;" vertex="1" parent="1">
          <mxGeometry x="365" y="1190" width="310" height="33.26" as="geometry" />
        </mxCell>
        <mxCell id="jmJejw3v0kQWSH8vtQN6-128" value="&lt;span style=&quot;white-space: pre;&quot;&gt;&#x9;&lt;/span&gt;}&lt;br&gt;&amp;nbsp; &amp;nbsp; }&lt;br&gt;}&lt;div&gt;конец&lt;/div&gt;" style="ellipse;whiteSpace=wrap;html=1;" vertex="1" parent="1">
          <mxGeometry x="480" y="1240" width="80" height="80" as="geometry" />
        </mxCell>
      </root>
    </mxGraphModel>
  </diagram>
</mxfile>
